<?xml version="1.0" encoding="utf-8"?>
<svg xmlns="http://www.w3.org/2000/svg" width="320" height="320" viewBox="0 0 320 320" role="img" aria-labelledby="title desc">
  <title id="title">QR coupon Aperitivo 2x1</title>
  <desc id="desc">Coupon demo MyAvezzano per Caffe Risorgimento con codice AVZ-APERITIVO-2X1.</desc>
  <defs>
    <linearGradient id="ticketBg" x1="34" y1="18" x2="286" y2="302" gradientUnits="userSpaceOnUse">
      <stop offset="0" stop-color="#06182E"/>
      <stop offset="0.58" stop-color="#0B2A4A"/>
      <stop offset="1" stop-color="#00C2D8"/>
    </linearGradient>
    <linearGradient id="accentStroke" x1="42" y1="48" x2="278" y2="292" gradientUnits="userSpaceOnUse">
      <stop offset="0" stop-color="#00C2D8"/>
      <stop offset="1" stop-color="#FF6B4A"/>
    </linearGradient>
    <filter id="softGlow" x="-20%" y="-20%" width="140%" height="140%">
      <feGaussianBlur stdDeviation="6" result="blur"/>
      <feColorMatrix in="blur" type="matrix" values="0 0 0 0 0.02 0 0 0 0 0.72 0 0 0 0 0.88 0 0 0 .38 0"/>
      <feBlend in="SourceGraphic" mode="screen"/>
    </filter>
  </defs>
  <rect width="320" height="320" rx="38" fill="#F8FAFC"/>
  <rect x="10" y="10" width="300" height="300" rx="34" fill="url(#ticketBg)"/>
  <path d="M36 78c34-34 92-48 148-38 52 9 82 37 100 80" fill="none" stroke="#FFFFFF" stroke-opacity=".14" stroke-width="14" stroke-linecap="round"/>
  <path d="M38 254c42 28 89 38 142 30 43-7 75-25 101-55" fill="none" stroke="#FF6B4A" stroke-opacity=".36" stroke-width="12" stroke-linecap="round"/>
  <circle cx="58" cy="54" r="5" fill="#00C2D8" filter="url(#softGlow)"/>
  <circle cx="266" cy="56" r="4" fill="#FF6B4A" opacity=".86"/>
  <text x="34" y="43" fill="#EAFBFF" font-family="Inter, Arial, sans-serif" font-size="12" font-weight="800" letter-spacing="1.7">MYAVEZZANO</text>
  <text x="286" y="43" fill="#EAFBFF" font-family="Inter, Arial, sans-serif" font-size="10" font-weight="800" text-anchor="end" letter-spacing="1.2">COUPON</text>
  <rect x="40" y="62" width="240" height="210" rx="28" fill="#FFFFFF" stroke="url(#accentStroke)" stroke-width="4"/>
  <rect x="52" y="74" width="216" height="186" rx="20" fill="#FFFFFF"/>
  <g transform="translate(62 78) scale(4.95)" shape-rendering="crispEdges">
    <path fill="#FFFFFF" d="M0 0h37v37H0z"/>
    <path stroke="#06182E" stroke-width="1" d="M2 2.5h7m1 0h1m2 0h2m6 0h2m1 0h2m2 0h7M2 3.5h1m5 0h1m1 0h3m3 0h1m2 0h1m5 0h2m1 0h1m5 0h1M2 4.5h1m1 0h3m1 0h1m2 0h2m1 0h3m1 0h1m1 0h3m3 0h1m1 0h1m1 0h3m1 0h1M2 5.5h1m1 0h3m1 0h1m1 0h1m3 0h1m2 0h1m2 0h1m3 0h1m1 0h1m1 0h1m1 0h3m1 0h1M2 6.5h1m1 0h3m1 0h1m2 0h1m1 0h3m2 0h3m2 0h2m1 0h1m1 0h1m1 0h3m1 0h1M2 7.5h1m5 0h1m4 0h2m1 0h4m3 0h2m3 0h1m5 0h1M2 8.5h7m1 0h1m1 0h1m1 0h1m1 0h1m1 0h1m1 0h1m1 0h1m1 0h1m1 0h1m1 0h7M10 9.5h1m1 0h1m4 0h3m1 0h1m3 0h2M2 10.5h1m1 0h2m1 0h3m4 0h1m2 0h1m1 0h2m2 0h1m4 0h1m2 0h1m1 0h2M2 11.5h1m1 0h1m1 0h1m3 0h6m2 0h8m2 0h2m1 0h4M4 12.5h3m1 0h1m1 0h6m4 0h1m1 0h4m2 0h4m1 0h2M4 13.5h2m1 0h1m2 0h1m3 0h1m3 0h2m2 0h1m1 0h3m2 0h1m1 0h1m2 0h1M4 14.5h1m3 0h1m1 0h2m4 0h3m5 0h1m2 0h1m1 0h3m1 0h2M5 15.5h1m4 0h1m1 0h1m1 0h1m1 0h1m2 0h1m2 0h2m2 0h2m1 0h1m3 0h1M2 16.5h1m1 0h1m2 0h3m1 0h1m1 0h1m2 0h1m2 0h1m1 0h4m1 0h1m1 0h4M5 17.5h3m3 0h2m1 0h4m5 0h1m2 0h3m1 0h3M2 18.5h2m1 0h4m1 0h4m2 0h1m1 0h1m1 0h1m2 0h2m1 0h3m1 0h1m1 0h1M2 19.5h1m3 0h1m7 0h4m4 0h7m1 0h2m1 0h2M4 20.5h11m1 0h3m1 0h1m3 0h1m4 0h2m1 0h2M4 21.5h4m2 0h4m1 0h2m2 0h3m2 0h2m2 0h1m1 0h1m2 0h1M3 22.5h1m1 0h1m2 0h2m1 0h2m1 0h2m2 0h1m3 0h3m4 0h1m1 0h3M2 23.5h1m1 0h1m2 0h1m1 0h1m2 0h1m1 0h2m1 0h2m2 0h1m1 0h1m1 0h1m2 0h2m2 0h1m1 0h1M6 24.5h5m6 0h1m1 0h2m1 0h1m2 0h1m1 0h1m2 0h2m1 0h2M3 25.5h5m3 0h4m2 0h1m2 0h2m3 0h1m3 0h1m1 0h1m2 0h1M2 26.5h1m1 0h1m2 0h2m1 0h7m2 0h1m1 0h1m2 0h1m1 0h5M10 27.5h2m2 0h1m1 0h3m2 0h3m1 0h2m3 0h2M2 28.5h7m1 0h1m2 0h1m4 0h5m2 0h2m1 0h1m1 0h1M2 29.5h1m5 0h1m1 0h1m3 0h3m1 0h9m3 0h5M2 30.5h1m1 0h3m1 0h1m4 0h1m1 0h7m1 0h1m1 0h6m1 0h1m1 0h1M2 31.5h1m1 0h3m1 0h1m1 0h2m1 0h1m2 0h1m1 0h2m2 0h2m1 0h1m3 0h1m1 0h2m1 0h1M2 32.5h1m1 0h3m1 0h1m1 0h1m2 0h2m2 0h2m5 0h1m2 0h3m1 0h1M2 33.5h1m5 0h1m2 0h2m1 0h3m2 0h1m1 0h2m3 0h5m3 0h1M2 34.5h7m1 0h1m1 0h1m5 0h2m1 0h1m1 0h1m1 0h1m4 0h1m1 0h1"/>
  </g>
  <rect x="48" y="276" width="224" height="25" rx="12.5" fill="#FFFFFF" fill-opacity=".96"/>
  <text x="160" y="293" fill="#06182E" font-family="Inter, Arial, sans-serif" font-size="12" font-weight="900" text-anchor="middle" letter-spacing="1.2">AVZ-APERITIVO-2X1</text>
</svg>
